<svg xmlns="http://www.w3.org/2000/svg" width="59" height="59" viewBox="0 0 59 59" fill="none"><mask id="mask0_234_4598" style="mask-type:alpha" maskUnits="userSpaceOnUse" x="0" y="0" width="59" height="59"><rect width="59" height="59" fill="#D9D9D9"></rect></mask><g mask="url(#mask0_234_4598)"><path d="M27.1635 39.0481L38.9654 27.0793L36.5861 24.6664L27.1635 34.2228L22.4139 29.4054L20.0346 31.8183L27.1635 39.0481ZM29.5 51C26.8754 51 24.4164 50.4966 22.1229 49.4897C19.8291 48.4829 17.8293 47.1144 16.1233 45.3843C14.4173 43.6542 13.0679 41.626 12.0751 39.2997C11.0823 36.9739 10.5859 34.4801 10.5859 31.8183C10.5859 29.1566 11.0823 26.6628 12.0751 24.3369C13.0679 22.0106 14.4173 19.9825 16.1233 18.2523C17.8293 16.5222 19.8291 15.1538 22.1229 14.1469C24.4164 13.1401 26.8754 12.6366 29.5 12.6366C32.1246 12.6366 34.5836 13.1401 36.8771 14.1469C39.1709 15.1538 41.1707 16.5222 42.8767 18.2523C44.5827 19.9825 45.9321 22.0106 46.9249 24.3369C47.9177 26.6628 48.4141 29.1566 48.4141 31.8183C48.4141 34.4801 47.9177 36.9739 46.9249 39.2997C45.9321 41.626 44.5827 43.6542 42.8767 45.3843C41.1707 47.1144 39.1709 48.4829 36.8771 49.4897C34.5836 50.4966 32.1246 51 29.5 51ZM15.6009 9L17.9463 11.378L9.34479 20.1011L7 17.7226L15.6009 9ZM43.3991 9L52 17.7226L49.6552 20.1011L41.0537 11.378L43.3991 9ZM29.5 47.615C33.825 47.615 37.5023 46.0788 40.5319 43.0063C43.5615 39.9339 45.0763 36.2045 45.0763 31.8183C45.0763 27.4321 43.5615 23.7028 40.5319 20.6303C37.5023 17.5579 33.825 16.0216 29.5 16.0216C25.175 16.0216 21.4977 17.5579 18.4681 20.6303C15.4385 23.7028 13.9237 27.4321 13.9237 31.8183C13.9237 36.2045 15.4385 39.9339 18.4681 43.0063C21.4977 46.0788 25.175 47.615 29.5 47.615Z" fill="white"></path></g></svg>