<svg xmlns="http://www.w3.org/2000/svg" width="100" height="101" viewBox="0 0 100 101" fill="none"><mask id="mask0_234_4770" style="mask-type:alpha" maskUnits="userSpaceOnUse" x="0" y="0" width="100" height="101"><rect y="0.561279" width="100" height="100" fill="#D9D9D9"></rect></mask><g mask="url(#mask0_234_4770)"><path d="M22.1153 85.978C20.0375 85.978 18.2625 85.2422 16.7903 83.7707C15.3188 82.2985 14.583 80.5235 14.583 78.4457V22.6769C14.583 20.5992 15.3188 18.8242 16.7903 17.3519C18.2625 15.8804 20.0375 15.1447 22.1153 15.1447H77.884C79.9618 15.1447 81.7368 15.8804 83.2091 17.3519C84.6806 18.8242 85.4163 20.5992 85.4163 22.6769V49.0311C84.3906 48.5929 83.3636 48.2217 82.3351 47.9176C81.3066 47.6127 80.2504 47.3697 79.1663 47.1884V22.6769C79.1663 22.3561 79.0327 22.0624 78.7653 21.7957C78.4986 21.5283 78.2049 21.3947 77.884 21.3947H22.1153C21.7945 21.3947 21.5007 21.5283 21.234 21.7957C20.9667 22.0624 20.833 22.3561 20.833 22.6769V78.4457C20.833 78.7665 20.9667 79.0603 21.234 79.3269C21.5007 79.5943 21.7945 79.728 22.1153 79.728H46.5226C46.6775 80.8815 46.907 81.9724 47.2111 83.0009C47.516 84.0294 47.8872 85.0217 48.3247 85.978H22.1153ZM20.833 79.728V21.3947V47.1884V46.8759V79.728ZM30.208 69.8717H46.9465C47.1285 68.7877 47.3983 67.7315 47.7559 66.703C48.1143 65.6745 48.5042 64.6478 48.9257 63.6228H30.208V69.8717ZM30.208 53.6863H56.6268C58.4212 52.1641 60.3361 50.8887 62.3716 49.8603C64.407 48.8318 66.5865 48.1013 68.9101 47.6686V47.4363H30.208V53.6863ZM30.208 37.4999H69.7913V31.2509H30.208V37.4999ZM74.9997 94.5519C69.7969 94.5519 65.3712 92.7276 61.7226 89.079C58.074 85.4304 56.2497 81.0047 56.2497 75.8019C56.2497 70.5992 58.074 66.1735 61.7226 62.5249C65.3712 58.8762 69.7969 57.0519 74.9997 57.0519C80.2024 57.0519 84.6281 58.8762 88.2768 62.5249C91.9254 66.1735 93.7497 70.5992 93.7497 75.8019C93.7497 81.0047 91.9254 85.4304 88.2768 89.079C84.6281 92.7276 80.2024 94.5519 74.9997 94.5519ZM73.157 88.0613H76.8424V77.6447H87.2591V73.9592H76.8424V63.5426H73.157V73.9592H62.7403V77.6447H73.157V88.0613Z" fill="url(#paint0_radial_234_4770)"></path></g><defs><radialGradient id="paint0_radial_234_4770" cx="0" cy="0" r="1" gradientUnits="userSpaceOnUse" gradientTransform="translate(-0.00628079 -0.295652) rotate(52.7978) scale(119.091 108.319)"><stop stop-color="#002C58"></stop><stop offset="0.17" stop-color="#C711FF"></stop><stop offset="0.744517" stop-color="#002C58"></stop><stop offset="1" stop-color="#33E6E2"></stop></radialGradient></defs></svg>