<svg xmlns="http://www.w3.org/2000/svg" width="59" height="59" viewBox="0 0 59 59" fill="none"><mask id="mask0_234_4608" style="mask-type:alpha" maskUnits="userSpaceOnUse" x="0" y="0" width="59" height="59"><rect width="59" height="59" fill="#D9D9D9"></rect></mask><g mask="url(#mask0_234_4608)"><path d="M21.8885 14.8447H26.6165V10.1173H21.8885V14.8447ZM31.3439 14.8447V10.1173H36.0712V14.8447H31.3439ZM21.8885 33.7548V29.0274H26.6165V33.7548H21.8885ZM40.7986 24.2994V19.572H45.5266V24.2994H40.7986ZM40.7986 33.7548V29.0274H45.5266V33.7548H40.7986ZM31.3439 33.7548V29.0274H36.0712V33.7548H31.3439ZM40.7986 14.8447V10.1173H45.5266V14.8447H40.7986ZM26.6165 19.572V14.8447H31.3439V19.572H26.6165ZM13.4736 48.5048V10.1173H17.1611V14.8447H21.8885V19.572H17.1611V24.2994H21.8885V29.0274H17.1611V48.5048H13.4736ZM36.0712 29.0274V24.2994H40.7986V29.0274H36.0712ZM26.6165 29.0274V24.2994H31.3439V29.0274H26.6165ZM21.8885 24.2994V19.572H26.6165V24.2994H21.8885ZM31.3439 24.2994V19.572H36.0712V24.2994H31.3439ZM36.0712 19.572V14.8447H40.7986V19.572H36.0712Z" fill="white"></path></g></svg>