<svg xmlns="http://www.w3.org/2000/svg" width="101" height="87" viewBox="0 0 101 87" fill="none"><mask id="mask0_234_4781" style="mask-type:alpha" maskUnits="userSpaceOnUse" x="0" y="0" width="101" height="87"><rect x="0.150391" y="0.561279" width="100" height="86" fill="#D9D9D9"></rect></mask><g mask="url(#mask0_234_4781)"><path d="M33.6341 63.6446C26.0966 63.6446 19.6983 61.0151 14.4393 55.756C9.18029 50.497 6.55078 44.0987 6.55078 36.5612C6.55078 29.0237 9.18029 22.6255 14.4393 17.3664C19.6983 12.1074 26.0966 9.47791 33.6341 9.47791C35.8299 9.47791 37.9466 9.74492 39.9841 10.2789C42.0223 10.8137 43.9414 11.5803 45.7414 12.5789C44.8817 13.3109 44.0713 14.1029 43.3102 14.955C42.549 15.8071 41.8237 16.6845 41.1341 17.5873C40.039 16.9942 38.8598 16.5359 37.5966 16.2123C36.3334 15.8894 35.0126 15.7279 33.6341 15.7279C27.8702 15.7279 22.957 17.7592 18.8945 21.8217C14.832 25.8842 12.8008 30.7974 12.8008 36.5612C12.8008 42.3251 14.832 47.2383 18.8945 51.3008C22.957 55.3633 27.8702 57.3946 33.6341 57.3946C35.0126 57.3946 36.3334 57.2331 37.5966 56.9102C38.8598 56.5866 40.039 56.1283 41.1341 55.5352C41.8237 56.438 42.549 57.3154 43.3102 58.1675C44.0713 59.0196 44.8817 59.8116 45.7414 60.5435C43.9414 61.5421 42.0223 62.3088 39.9841 62.8435C37.9466 63.3776 35.8299 63.6446 33.6341 63.6446ZM66.9674 63.6446C64.7716 63.6446 62.6549 63.3776 60.6174 62.8435C58.5793 62.3088 56.6602 61.5421 54.8602 60.5435C55.7199 59.8116 56.5303 59.0196 57.2914 58.1675C58.0525 57.3154 58.7779 56.438 59.4674 55.5352C60.6049 56.1283 61.7949 56.5866 63.0372 56.9102C64.2789 57.2331 65.589 57.3946 66.9674 57.3946C72.7313 57.3946 77.6445 55.3633 81.707 51.3008C85.7695 47.2383 87.8008 42.3251 87.8008 36.5612C87.8008 30.7974 85.7695 25.8842 81.707 21.8217C77.6445 17.7592 72.7313 15.7279 66.9674 15.7279C65.589 15.7279 64.2789 15.8894 63.0372 16.2123C61.7949 16.5359 60.6049 16.9942 59.4674 17.5873C58.7779 16.6845 58.0525 15.8071 57.2914 14.955C56.5303 14.1029 55.7199 13.3109 54.8602 12.5789C56.6602 11.5803 58.5793 10.8137 60.6174 10.2789C62.6549 9.74492 64.7716 9.47791 66.9674 9.47791C74.5049 9.47791 80.9032 12.1074 86.1622 17.3664C91.4213 22.6255 94.0508 29.0237 94.0508 36.5612C94.0508 44.0987 91.4213 50.497 86.1622 55.756C80.9032 61.0151 74.5049 63.6446 66.9674 63.6446ZM50.3008 57.7946C47.0105 55.2737 44.4518 52.1487 42.6247 48.4196C40.7977 44.6911 39.8841 40.7383 39.8841 36.5612C39.8841 32.3842 40.7977 28.4314 42.6247 24.7029C44.4518 20.9737 47.0105 17.8487 50.3008 15.3279C53.5911 17.8487 56.1497 20.9737 57.9768 24.7029C59.8039 28.4314 60.7174 32.3842 60.7174 36.5612C60.7174 40.7383 59.8039 44.6911 57.9768 48.4196C56.1497 52.1487 53.5911 55.2737 50.3008 57.7946Z" fill="url(#paint0_radial_234_4781)"></path></g><defs><radialGradient id="paint0_radial_234_4781" cx="0" cy="0" r="1" gradientUnits="userSpaceOnUse" gradientTransform="translate(-9.57423 -1.0545) rotate(12.2813) scale(115.724 69.9944)"><stop stop-color="#002C58"></stop><stop offset="0.17" stop-color="#C711FF"></stop><stop offset="0.458034" stop-color="#002C58"></stop><stop offset="1" stop-color="#33E6E2"></stop></radialGradient></defs></svg>