<svg xmlns="http://www.w3.org/2000/svg" width="70" height="73" viewBox="0 0 70 73" fill="none"><mask id="mask0_234_6136" style="mask-type:alpha" maskUnits="userSpaceOnUse" x="0" y="0" width="70" height="73"><rect y="0.561523" width="70" height="72" fill="#D9D9D9"></rect></mask><g mask="url(#mask0_234_6136)"><path d="M35.0003 69.5615C25.9587 69.5615 18.351 67.824 12.1774 64.349C6.0038 60.874 2.91699 56.6115 2.91699 51.5615C2.91699 50.1115 3.20866 48.699 3.79199 47.324C4.37533 45.949 5.22602 44.6115 6.34408 43.3115C7.46213 42.0115 8.83539 40.849 10.4639 39.824C12.0923 38.799 13.9274 37.8615 15.9691 37.0115C16.6982 36.7115 17.4153 36.749 18.1201 37.124C18.825 37.499 19.2989 38.0865 19.542 38.8865C19.785 39.6365 19.7243 40.374 19.3597 41.099C18.9951 41.824 18.4482 42.3615 17.7191 42.7115C16.358 43.2615 15.1305 43.874 14.0368 44.549C12.943 45.224 12.0073 45.9615 11.2295 46.7615C10.4031 47.5615 9.78331 48.374 9.37012 49.199C8.95692 50.024 8.75033 50.8115 8.75033 51.5615C8.75033 54.7615 11.3753 57.5615 16.6253 59.9615C21.8753 62.3615 28.0003 63.5615 35.0003 63.5615C42.0003 63.5615 48.1253 62.3615 53.3753 59.9615C58.6253 57.5615 61.2503 54.7615 61.2503 51.5615C61.2503 50.8115 61.0437 50.024 60.6305 49.199C60.2173 48.374 59.5975 47.5615 58.7712 46.7615C57.9934 45.9615 57.0576 45.224 55.9639 44.549C54.8701 43.874 53.6427 43.2615 52.2816 42.7115C51.5524 42.3615 51.0055 41.824 50.641 41.099C50.2764 40.374 50.2156 39.6365 50.4587 38.8865C50.7017 38.0865 51.1757 37.499 51.8805 37.124C52.5854 36.749 53.3024 36.7115 54.0316 37.0115C55.8302 37.7615 57.4708 38.599 58.9534 39.524C60.4361 40.449 61.7364 41.4615 62.8545 42.5615C64.2642 43.9115 65.3215 45.349 66.0264 46.874C66.7312 48.399 67.0837 49.9615 67.0837 51.5615C67.0837 56.6115 63.9969 60.874 57.8232 64.349C51.6496 67.824 44.042 69.5615 35.0003 69.5615ZM29.167 57.5615C28.3406 57.5615 27.6479 57.274 27.0889 56.699C26.5298 56.124 26.2503 55.4115 26.2503 54.5615V24.5615H14.5837C13.7573 24.5615 13.0646 24.274 12.5055 23.699C11.9465 23.124 11.667 22.4115 11.667 21.5615C11.667 20.7115 11.9465 19.999 12.5055 19.424C13.0646 18.849 13.7573 18.5615 14.5837 18.5615H55.417C56.2434 18.5615 56.9361 18.849 57.4951 19.424C58.0541 19.999 58.3337 20.7115 58.3337 21.5615C58.3337 22.4115 58.0541 23.124 57.4951 23.699C56.9361 24.274 56.2434 24.5615 55.417 24.5615H43.7503V54.5615C43.7503 55.4115 43.4708 56.124 42.9118 56.699C42.3528 57.274 41.66 57.5615 40.8337 57.5615C40.0073 57.5615 39.3146 57.274 38.7555 56.699C38.1965 56.124 37.917 55.4115 37.917 54.5615V42.5615H32.0837V54.5615C32.0837 55.4115 31.8041 56.124 31.2451 56.699C30.6861 57.274 29.9934 57.5615 29.167 57.5615ZM35.0003 15.5615C33.3962 15.5615 32.0229 14.974 30.8805 13.799C29.7382 12.624 29.167 11.2115 29.167 9.56152C29.167 7.91152 29.7382 6.49902 30.8805 5.32402C32.0229 4.14902 33.3962 3.56152 35.0003 3.56152C36.6045 3.56152 37.9778 4.14902 39.1201 5.32402C40.2625 6.49902 40.8337 7.91152 40.8337 9.56152C40.8337 11.2115 40.2625 12.624 39.1201 13.799C37.9778 14.974 36.6045 15.5615 35.0003 15.5615Z" fill="url(#paint0_radial_234_6136)"></path></g><defs><radialGradient id="paint0_radial_234_6136" cx="0" cy="0" r="1" gradientUnits="userSpaceOnUse" gradientTransform="translate(-8.90801 -9.27181) rotate(20.3927) scale(117.942 109.349)"><stop stop-color="#002C58"></stop><stop offset="0.17" stop-color="#C711FF"></stop><stop offset="0.639213" stop-color="#002C58"></stop><stop offset="0.799326" stop-color="#33E6E2"></stop></radialGradient></defs></svg>