<svg xmlns="http://www.w3.org/2000/svg" width="59" height="59" viewBox="0 0 59 59" fill="none"><mask id="mask0_234_4603" style="mask-type:alpha" maskUnits="userSpaceOnUse" x="0" y="0" width="59" height="59"><rect width="59" height="59" fill="#D9D9D9"></rect></mask><g mask="url(#mask0_234_4603)"><path d="M27.6707 51.0104V45.867C25.5307 45.4855 23.6878 44.6495 22.1419 43.3589C20.596 42.0682 19.4543 40.2632 18.7168 37.9438L22.1302 36.5253C22.7919 38.4289 23.7349 39.885 24.9591 40.8938C26.1838 41.9021 27.8188 42.4063 29.8641 42.4063C31.6386 42.4063 33.2044 41.984 34.5614 41.1396C35.918 40.2948 36.5963 38.9552 36.5963 37.1208C36.5963 35.5291 36.0866 34.2581 35.0672 33.308C34.0474 32.3578 31.9381 31.3659 28.7394 30.3322C25.3891 29.273 23.0623 28.0344 21.759 26.6164C20.4557 25.1979 19.804 23.414 19.804 21.2646C19.804 18.7907 20.6724 16.8437 22.4092 15.4236C24.1456 14.0039 25.8994 13.2152 27.6707 13.0574V7.98959H31.3582V13.0574C33.2335 13.3066 34.8093 13.9164 36.0855 14.8871C37.3622 15.8577 38.355 17.12 39.0638 18.6741L35.6983 20.2149C35.1592 19.03 34.4073 18.1097 33.4428 17.4542C32.4788 16.7986 31.2103 16.4708 29.6373 16.4708C27.7874 16.4708 26.3005 16.9215 25.1767 17.8229C24.0532 18.7243 23.4915 19.8715 23.4915 21.2646C23.4915 22.6953 24.0667 23.8395 25.2172 24.697C26.3673 25.5542 28.5057 26.4523 31.6323 27.3914C34.538 28.2739 36.7065 29.5316 38.1376 31.1643C39.5684 32.7966 40.2838 34.757 40.2838 37.0452C40.2838 39.7334 39.4194 41.8197 37.6908 43.3042C35.9622 44.789 33.8513 45.6685 31.3582 45.9426V51.0104H27.6707Z" fill="white"></path></g></svg>