<svg xmlns="http://www.w3.org/2000/svg" width="71" height="73" viewBox="0 0 71 73" fill="none"><mask id="mask0_234_6147" style="mask-type:alpha" maskUnits="userSpaceOnUse" x="0" y="0" width="71" height="73"><rect x="0.149414" y="0.561523" width="70" height="72" fill="#D9D9D9"></rect></mask><g mask="url(#mask0_234_6147)"><path d="M35.1491 66.5615C31.1144 66.5615 27.3227 65.774 23.7741 64.199C20.2255 62.624 17.1387 60.4865 14.5137 57.7865C11.8887 55.0865 9.81055 51.9115 8.2793 48.2615C6.74805 44.6115 5.98242 40.7115 5.98242 36.5615C5.98242 32.4115 6.74805 28.5115 8.2793 24.8615C9.81055 21.2115 11.8887 18.0365 14.5137 15.3365C17.1387 12.6365 20.2255 10.499 23.7741 8.92402C27.3227 7.34902 31.1144 6.56152 35.1491 6.56152C39.1838 6.56152 42.9755 7.34902 46.5241 8.92402C50.0727 10.499 53.1595 12.6365 55.7845 15.3365C58.4095 18.0365 60.4876 21.2115 62.0189 24.8615C63.5501 28.5115 64.3158 32.4115 64.3158 36.5615C64.3158 40.7115 63.5501 44.6115 62.0189 48.2615C60.4876 51.9115 58.4095 55.0865 55.7845 57.7865C53.1595 60.4865 50.0727 62.624 46.5241 64.199C42.9755 65.774 39.1838 66.5615 35.1491 66.5615ZM35.1491 60.5615C41.663 60.5615 47.1803 58.2365 51.7012 53.5865C56.222 48.9365 58.4824 43.2615 58.4824 36.5615C58.4824 29.8615 56.222 24.1865 51.7012 19.5365C47.1803 14.8865 41.663 12.5615 35.1491 12.5615C28.6352 12.5615 23.1178 14.8865 18.597 19.5365C14.0762 24.1865 11.8158 29.8615 11.8158 36.5615C11.8158 43.2615 14.0762 48.9365 18.597 53.5865C23.1178 58.2365 28.6352 60.5615 35.1491 60.5615ZM35.1491 54.5615C30.288 54.5615 26.156 52.8115 22.7533 49.3115C19.3505 45.8115 17.6491 41.5615 17.6491 36.5615C17.6491 31.5615 19.3505 27.3115 22.7533 23.8115C26.156 20.3115 30.288 18.5615 35.1491 18.5615C40.0102 18.5615 44.1421 20.3115 47.5449 23.8115C50.9477 27.3115 52.6491 31.5615 52.6491 36.5615C52.6491 41.5615 50.9477 45.8115 47.5449 49.3115C44.1421 52.8115 40.0102 54.5615 35.1491 54.5615ZM35.1491 48.5615C38.3574 48.5615 41.1039 47.3865 43.3887 45.0365C45.6734 42.6865 46.8158 39.8615 46.8158 36.5615C46.8158 33.2615 45.6734 30.4365 43.3887 28.0865C41.1039 25.7365 38.3574 24.5615 35.1491 24.5615C31.9408 24.5615 29.1942 25.7365 26.9095 28.0865C24.6248 30.4365 23.4824 33.2615 23.4824 36.5615C23.4824 39.8615 24.6248 42.6865 26.9095 45.0365C29.1942 47.3865 31.9408 48.5615 35.1491 48.5615ZM35.1491 42.5615C33.5449 42.5615 32.1717 41.974 31.0293 40.799C29.8869 39.624 29.3158 38.2115 29.3158 36.5615C29.3158 34.9115 29.8869 33.499 31.0293 32.324C32.1717 31.149 33.5449 30.5615 35.1491 30.5615C36.7533 30.5615 38.1265 31.149 39.2689 32.324C40.4112 33.499 40.9824 34.9115 40.9824 36.5615C40.9824 38.2115 40.4112 39.624 39.2689 40.799C38.1265 41.974 36.7533 42.5615 35.1491 42.5615Z" fill="url(#paint0_radial_234_6147)"></path></g><defs><radialGradient id="paint0_radial_234_6147" cx="0" cy="0" r="1" gradientUnits="userSpaceOnUse" gradientTransform="translate(-4.76758 -5.10515) rotate(20.3927) scale(107.22 99.4084)"><stop stop-color="#002C58"></stop><stop offset="0.17" stop-color="#C711FF"></stop><stop offset="0.503971" stop-color="#002C58"></stop><stop offset="0.882328" stop-color="#33E6E2"></stop></radialGradient></defs></svg>