<svg xmlns="http://www.w3.org/2000/svg" width="71" height="73" viewBox="0 0 71 73" fill="none"><mask id="mask0_234_6127" style="mask-type:alpha" maskUnits="userSpaceOnUse" x="0" y="0" width="71" height="73"><rect x="0.849609" y="0.561523" width="70" height="72" fill="#D9D9D9"></rect></mask><g mask="url(#mask0_234_6127)"><path d="M44.9944 16.1711C43.869 16.1711 42.9131 15.7669 42.1266 14.9584C41.3405 14.1494 40.9475 13.1661 40.9475 12.0086C40.9475 10.8511 41.3405 9.86788 42.1266 9.05888C42.9131 8.25038 43.869 7.84613 44.9944 7.84613C46.1197 7.84613 47.0757 8.25038 47.8622 9.05888C48.6482 9.86788 49.0413 10.8511 49.0413 12.0086C49.0413 13.1661 48.6482 14.1494 47.8622 14.9584C47.0757 15.7669 46.1197 16.1711 44.9944 16.1711ZM44.9944 65.6711C43.869 65.6711 42.9131 65.2669 42.1266 64.4584C41.3405 63.6494 40.9475 62.6661 40.9475 61.5086C40.9475 60.3511 41.3405 59.3679 42.1266 58.5589C42.9131 57.7504 43.869 57.3461 44.9944 57.3461C46.1197 57.3461 47.0757 57.7504 47.8622 58.5589C48.6482 59.3679 49.0413 60.3511 49.0413 61.5086C49.0413 62.6661 48.6482 63.6494 47.8622 64.4584C47.0757 65.2669 46.1197 65.6711 44.9944 65.6711ZM56.6611 26.6711C55.5357 26.6711 54.5798 26.2669 53.7932 25.4584C53.0072 24.6494 52.6142 23.6661 52.6142 22.5086C52.6142 21.3511 53.0072 20.3679 53.7932 19.5589C54.5798 18.7504 55.5357 18.3461 56.6611 18.3461C57.7864 18.3461 58.7423 18.7504 59.5289 19.5589C60.3149 20.3679 60.7079 21.3511 60.7079 22.5086C60.7079 23.6661 60.3149 24.6494 59.5289 25.4584C58.7423 26.2669 57.7864 26.6711 56.6611 26.6711ZM56.6611 55.1711C55.5357 55.1711 54.5798 54.7669 53.7932 53.9584C53.0072 53.1494 52.6142 52.1661 52.6142 51.0086C52.6142 49.8511 53.0072 48.8679 53.7932 48.0589C54.5798 47.2504 55.5357 46.8461 56.6611 46.8461C57.7864 46.8461 58.7423 47.2504 59.5289 48.0589C60.3149 48.8679 60.7079 49.8511 60.7079 51.0086C60.7079 52.1661 60.3149 53.1494 59.5289 53.9584C58.7423 54.7669 57.7864 55.1711 56.6611 55.1711ZM61.0361 40.9211C59.9107 40.9211 58.9548 40.5169 58.1682 39.7084C57.3822 38.8994 56.9892 37.9161 56.9892 36.7586C56.9892 35.6011 57.3822 34.6179 58.1682 33.8089C58.9548 33.0004 59.9107 32.5961 61.0361 32.5961C62.1614 32.5961 63.1173 33.0004 63.9039 33.8089C64.6899 34.6179 65.0829 35.6011 65.0829 36.7586C65.0829 37.9161 64.6899 38.8994 63.9039 39.7084C63.1173 40.5169 62.1614 40.9211 61.0361 40.9211ZM6 36.7586C6 28.8606 8.54285 22.0599 13.6285 16.3564C18.7142 10.6524 24.9688 7.39564 32.3922 6.58614C33.2516 6.47414 33.9869 6.74439 34.5979 7.39689C35.2094 8.04989 35.5152 8.85513 35.5152 9.81263C35.5152 10.7201 35.2367 11.5156 34.6796 12.1991C34.123 12.8831 33.415 13.2929 32.5555 13.4284C26.8831 14.1884 22.145 16.7616 18.3411 21.1481C14.5373 25.5346 12.6354 30.7381 12.6354 36.7586C12.6354 42.8171 14.5373 48.0301 18.3411 52.3976C22.145 56.7651 26.8831 59.3289 32.5555 60.0889C33.415 60.2244 34.123 60.6341 34.6796 61.3181C35.2367 62.0016 35.5152 62.7971 35.5152 63.7046C35.5152 64.6621 35.2094 65.4674 34.5979 66.1204C33.9869 66.7729 33.2516 67.0431 32.3922 66.9311C24.9318 66.1216 18.6681 62.8649 13.6008 57.1609C8.53361 51.4574 6 44.6566 6 36.7586ZM35.5152 43.1711C33.7949 43.1711 32.3256 42.5449 31.1074 41.2924C29.8897 40.0394 29.2808 38.5281 29.2808 36.7586C29.2808 36.5326 29.2901 36.2941 29.3085 36.0431C29.327 35.7916 29.379 35.5529 29.4646 35.3269L25.5934 31.3459C24.9775 30.7119 24.6696 29.9191 24.6696 28.9676C24.6696 28.0161 24.9834 27.2174 25.6109 26.5714C26.2273 25.9379 27.001 25.6211 27.9319 25.6211C28.8628 25.6211 29.6364 25.9379 30.2528 26.5714L34.1232 30.5351C34.3177 30.4851 34.7817 30.4221 35.5152 30.3461C37.2356 30.3461 38.7048 30.9724 39.923 32.2249C41.1407 33.4779 41.7496 34.9891 41.7496 36.7586C41.7496 38.5281 41.1407 40.0394 39.923 41.2924C38.7048 42.5449 37.2356 43.1711 35.5152 43.1711Z" fill="url(#paint0_radial_234_6127)"></path></g><defs><radialGradient id="paint0_radial_234_6127" cx="0" cy="0" r="1" gradientUnits="userSpaceOnUse" gradientTransform="translate(-4.88814 -5.1818) rotate(20.2766) scale(108.516 100.137)"><stop stop-color="#002C58"></stop><stop offset="0.17" stop-color="#C711FF"></stop><stop offset="0.499945" stop-color="#002C58"></stop><stop offset="0.814469" stop-color="#33E6E2"></stop></radialGradient></defs></svg>