<svg xmlns="http://www.w3.org/2000/svg" width="101" height="79" viewBox="0 0 101 79" fill="none"><mask id="mask0_234_4792" style="mask-type:alpha" maskUnits="userSpaceOnUse" x="0" y="0" width="101" height="79"><rect x="0.299805" y="0.561279" width="100" height="78" fill="#D9D9D9"></rect></mask><g mask="url(#mask0_234_4792)"><path d="M19.3889 67.5613V56.2451L64.1027 12.0575C64.6286 11.5373 65.2064 11.1578 65.8362 10.9192C66.4665 10.6806 67.0965 10.5613 67.7263 10.5613C68.3911 10.5613 69.0353 10.6806 69.6588 10.9192C70.2818 11.1578 70.828 11.5373 71.2974 12.0575L75.4877 16.2034C76.0136 16.6678 76.3971 17.2082 76.6382 17.8246C76.8794 18.4415 77 19.0789 77 19.7366C77 20.3597 76.8794 20.9831 76.6382 21.6067C76.3971 22.2298 76.0136 22.8015 75.4877 23.3217L30.8264 67.5613H19.3889ZM24.4722 62.5319H28.6626L63.1971 28.4157L61.118 26.2748L58.9542 24.2178L24.4722 58.386V62.5319ZM61.118 26.2748L58.9542 24.2178L63.1971 28.4157L61.118 26.2748ZM52.04 67.5613C56.0022 67.5613 59.6754 66.6026 63.0598 64.6853C66.4442 62.768 68.1364 60.0943 68.1364 56.6642C68.1364 54.6955 67.5402 52.9738 66.3479 51.499C65.155 50.0248 63.4812 48.7784 61.3264 47.7596L57.5334 51.5124C59.2668 52.1573 60.6201 52.917 61.5933 53.7916C62.567 54.6661 63.0539 55.6237 63.0539 56.6642C63.0539 58.2502 61.9525 59.6246 59.7497 60.7875C57.5469 61.9504 54.977 62.5319 52.04 62.5319C51.3187 62.5319 50.7146 62.7727 50.2278 63.2544C49.7415 63.7356 49.4983 64.333 49.4983 65.0466C49.4983 65.7602 49.7415 66.3576 50.2278 66.8387C50.7146 67.3204 51.3187 67.5613 52.04 67.5613ZM21.4027 43.8778L25.183 40.1057C23.8574 39.5514 22.8427 38.9775 22.139 38.384C21.4352 37.7911 21.0833 37.1786 21.0833 36.5466C21.0833 35.7039 21.6515 34.8721 22.7879 34.0511C23.9238 33.2302 26.1839 32.0997 29.5683 30.6597C34.2783 28.6652 37.4305 26.8608 39.025 25.2463C40.6194 23.6324 41.4167 21.811 41.4167 19.7819C41.4167 17.0308 40.2447 14.8064 37.9007 13.1087C35.5567 11.4104 32.4926 10.5613 28.7083 10.5613C26.3841 10.5613 24.2466 10.9762 22.2957 11.8061C20.3448 12.6354 18.8871 13.6499 17.9223 14.8497C17.4536 15.404 17.2593 16.0154 17.3395 16.6837C17.4197 17.3521 17.7402 17.9011 18.3011 18.3309C18.8614 18.774 19.4739 18.9556 20.1387 18.8757C20.8035 18.7964 21.3703 18.5245 21.8391 18.0601C22.6953 17.2135 23.6795 16.5901 24.7916 16.19C25.9037 15.7905 27.2093 15.5907 28.7083 15.5907C31.198 15.5907 33.0913 16.0065 34.3881 16.838C35.6849 17.6701 36.3333 18.6514 36.3333 19.7819C36.3333 20.7576 35.7739 21.6422 34.655 22.4357C33.5367 23.2287 31.1656 24.4355 27.5417 26.0561C23.1751 27.9471 20.1599 29.6406 18.4959 31.1366C16.832 32.6326 16 34.4359 16 36.5466C16 38.1197 16.4747 39.5028 17.4242 40.6958C18.3736 41.8889 19.6998 42.9496 21.4027 43.8778Z" fill="url(#paint0_radial_234_4792)"></path></g><defs><radialGradient id="paint0_radial_234_4792" cx="0" cy="0" r="1" gradientUnits="userSpaceOnUse" gradientTransform="translate(4.75856 -0.522058) rotate(44.158) scale(79.7878 68.6602)"><stop stop-color="#002C58"></stop><stop offset="0.17" stop-color="#C711FF"></stop><stop offset="0.744517" stop-color="#002C58"></stop><stop offset="1" stop-color="#33E6E2"></stop></radialGradient></defs></svg>