<svg xmlns="http://www.w3.org/2000/svg" width="13" height="12" viewBox="0 0 13 12" fill="none"><path d="M5.55202 0.374797C5.76241 -0.124933 6.479 -0.124932 6.68939 0.374799L7.93114 3.3243C8.01989 3.53497 8.22045 3.67892 8.45065 3.69715L11.6738 3.95243C12.2199 3.99568 12.4414 4.66896 12.0253 5.02106L9.56959 7.0992C9.39419 7.24766 9.31755 7.48059 9.37114 7.7025L10.1214 10.8098C10.2485 11.3362 9.66881 11.7524 9.20126 11.4703L6.44176 9.8051C6.24465 9.68615 5.99676 9.68615 5.79966 9.8051L3.04015 11.4703C2.5726 11.7524 1.99287 11.3362 2.11999 10.8098L2.87026 7.7025C2.92385 7.48059 2.84724 7.24766 2.67184 7.0992L0.216099 5.02106C-0.199974 4.66896 0.021464 3.99568 0.567568 3.95243L3.79077 3.69715C4.021 3.67892 4.22155 3.53497 4.31024 3.3243L5.55202 0.374797Z" fill="white"></path></svg>